<?xml version="1.0" standalone="no"?>
<!DOCTYPE svg PUBLIC "-//W3C//DTD SVG 20010904//EN"
 "http://www.w3.org/TR/2001/REC-SVG-20010904/DTD/svg10.dtd">
<svg version="1.0" xmlns="http://www.w3.org/2000/svg"
 width="4000.000000pt" height="4000.000000pt" viewBox="0 0 4000.000000 4000.000000"
 preserveAspectRatio="xMidYMid meet">

<g transform="translate(0.000000,4000.000000) scale(0.100000,-0.100000)"
fill="#000000" stroke="none">
<path d="M28910 34105 c-47 -7 -152 -29 -235 -49 -190 -44 -243 -53 -385 -66
-147 -14 -329 -51 -470 -96 -168 -53 -363 -100 -580 -140 -412 -75 -700 -158
-1245 -359 -226 -84 -336 -135 -478 -223 -118 -73 -160 -112 -193 -178 -25
-50 -26 -62 -21 -142 6 -94 52 -309 98 -461 16 -52 27 -102 24 -111 -7 -23
-32 -33 -212 -84 -348 -98 -519 -143 -1003 -262 -278 -69 -658 -163 -845 -209
-187 -46 -536 -125 -775 -176 -503 -105 -630 -136 -1398 -338 -686 -181 -1073
-280 -1415 -361 -220 -53 -260 -60 -274 -49 -9 8 -40 50 -68 95 -104 160 -212
237 -425 301 -90 27 -105 28 -285 28 -189 -1 -190 -1 -352 -42 -89 -23 -253
-60 -365 -83 -265 -54 -502 -113 -630 -156 -56 -18 -112 -34 -123 -34 -28 0
-51 26 -60 70 -12 59 -63 169 -111 241 -58 88 -140 161 -229 204 -147 72 -264
85 -750 84 -373 -1 -466 5 -805 57 -283 44 -779 150 -1212 260 -285 72 -637
137 -813 149 -256 19 -565 -56 -800 -192 -171 -99 -272 -189 -585 -522 -149
-159 -843 -828 -1048 -1010 -148 -132 -321 -266 -537 -417 -293 -205 -977
-725 -1255 -953 -260 -214 -494 -399 -595 -472 -280 -201 -407 -412 -518 -855
-55 -219 -71 -350 -70 -579 0 -207 5 -257 68 -615 60 -343 81 -547 100 -980 8
-184 20 -405 25 -490 21 -341 10 -639 -45 -1175 -19 -187 -48 -497 -65 -690
-63 -721 -103 -986 -235 -1545 -40 -173 -99 -434 -130 -580 -94 -439 -95 -443
-261 -570 -318 -245 -511 -535 -644 -967 -86 -278 -136 -712 -111 -963 29
-290 64 -404 315 -1045 65 -165 197 -516 293 -780 451 -1237 535 -1450 908
-2285 264 -592 309 -687 461 -990 261 -520 527 -978 783 -1350 139 -202 169
-250 204 -331 21 -46 105 -304 188 -574 216 -706 224 -735 458 -1655 155 -609
221 -823 335 -1080 211 -474 528 -898 915 -1224 237 -201 923 -690 1203 -859
393 -237 857 -438 1429 -620 494 -157 789 -209 1204 -209 315 0 536 29 870
114 552 140 1113 400 1600 740 555 388 813 687 1011 1169 104 254 195 659 224
996 14 168 38 235 178 500 249 473 400 798 541 1166 269 701 383 1255 400
1942 3 154 10 286 14 293 12 19 36 15 149 -23 241 -80 447 -85 646 -13 157 57
272 148 439 347 124 149 175 230 216 349 27 78 31 103 35 232 8 278 -34 429
-216 777 -136 259 -216 514 -341 1078 -80 362 -113 498 -160 662 -22 76 -45
179 -51 228 -40 330 -101 531 -221 727 -65 107 -72 139 -35 156 14 6 98 25
188 42 954 181 1377 284 2563 624 165 48 543 147 840 222 297 74 671 171 830
214 1080 294 2594 656 3180 760 520 92 701 133 1233 275 617 165 946 253 1222
330 384 106 471 125 948 210 338 60 477 88 660 135 65 16 171 39 237 50 384
67 832 181 1369 349 282 89 320 103 379 146 59 44 128 137 158 213 32 79 32
235 0 382 -49 231 -154 483 -234 563 -67 67 -114 82 -245 80 -106 -2 -113 -1
-126 20 -8 12 -38 123 -66 247 -110 475 -152 636 -249 960 -92 304 -507 1939
-830 3266 -77 315 -187 729 -307 1154 -134 470 -183 655 -305 1130 -71 278
-170 651 -220 830 -103 368 -107 400 -68 520 22 68 24 91 23 240 -1 156 -3
178 -48 395 -73 360 -169 725 -507 1944 -149 535 -193 671 -265 819 -76 156
-193 259 -398 352 -120 53 -175 63 -367 65 -110 2 -183 7 -197 14 -16 8 -30
38 -52 114 -92 306 -136 415 -188 470 -49 52 -107 78 -200 92 -49 8 -115 21
-148 30 -81 23 -349 29 -464 10z m422 -378 c53 -7 104 -19 113 -27 25 -20 45
-64 70 -154 50 -176 52 -231 8 -255 -35 -18 -288 -108 -353 -124 -36 -9 -130
-31 -210 -47 -167 -35 -460 -108 -880 -219 -162 -43 -410 -106 -550 -141 -233
-56 -463 -117 -785 -205 -656 -181 -925 -245 -978 -231 -38 9 -53 37 -97 187
-44 150 -74 309 -65 339 8 24 60 52 216 115 440 180 997 328 1637 435 136 22
307 59 402 85 156 43 367 80 592 105 122 13 216 32 345 71 105 32 341 77 403
78 19 0 79 -5 132 -12z m885 -757 c43 -6 99 -18 125 -26 56 -18 138 -89 172
-148 48 -82 153 -449 316 -1096 50 -201 112 -439 137 -530 151 -550 174 -640
228 -904 14 -66 43 -184 65 -261 22 -77 43 -165 46 -196 6 -51 4 -58 -17 -73
-28 -20 -392 -140 -479 -158 -51 -10 -62 -10 -74 2 -8 8 -33 89 -55 180 -22
91 -70 266 -107 390 -127 429 -164 565 -204 745 -74 327 -178 673 -310 1030
-90 242 -143 316 -252 350 -52 17 -64 17 -274 -4 -380 -38 -493 -59 -727 -132
-188 -59 -400 -110 -792 -189 -829 -168 -1087 -237 -1905 -510 -882 -295
-1168 -376 -1930 -550 -592 -135 -1675 -428 -2755 -745 -1101 -323 -1843 -517
-2605 -681 -314 -68 -336 -73 -537 -135 -89 -28 -214 -61 -278 -74 -189 -40
-270 -100 -295 -222 -15 -72 -12 -98 61 -543 116 -701 256 -1310 405 -1760 41
-124 74 -232 74 -241 0 -31 -36 -47 -185 -83 -224 -55 -537 -142 -950 -265
-552 -163 -798 -232 -1130 -315 -391 -99 -479 -122 -1040 -275 -751 -204 -975
-262 -1460 -376 -154 -36 -431 -106 -615 -155 -184 -49 -351 -92 -370 -95 -57
-10 -68 6 -95 140 -84 430 -275 975 -491 1407 -52 103 -94 224 -94 268 0 95
115 277 379 600 381 466 1308 1445 1462 1543 115 74 145 78 499 81 316 2 375
7 580 47 157 31 291 70 534 154 308 106 491 152 936 235 430 79 855 191 1550
405 327 101 598 181 830 245 211 59 354 98 525 145 191 52 304 84 925 260 239
67 503 142 585 164 83 23 182 51 220 62 1165 325 2342 621 4040 1014 1848 428
2865 684 3620 910 44 14 139 42 210 64 72 21 267 73 435 116 168 42 391 101
495 130 105 30 201 56 215 58 52 9 282 7 357 -3z m-552 -1036 c20 -21 31 -46
115 -285 198 -561 351 -1105 400 -1414 42 -270 60 -338 130 -495 45 -99 67
-214 49 -254 -14 -31 -36 -40 -178 -72 -124 -27 -153 -26 -176 9 -8 12 -37
135 -65 272 -102 500 -202 887 -351 1365 -133 424 -175 502 -293 540 -64 20
-66 20 -676 -140 -80 -21 -234 -61 -342 -89 -452 -117 -611 -158 -963 -252
-584 -155 -1704 -468 -1776 -497 -41 -16 -98 -71 -122 -116 -32 -62 -30 -168
7 -266 88 -235 135 -392 261 -870 37 -140 87 -319 111 -397 48 -157 52 -178
28 -187 -9 -3 -78 12 -154 33 -339 98 -767 170 -1180 201 -173 13 -596 13
-770 0 -313 -23 -633 -73 -955 -150 -27 -7 -127 -34 -222 -61 -795 -225 -1367
-528 -2018 -1068 -190 -158 -587 -555 -730 -731 -61 -74 -128 -152 -149 -172
-39 -38 -127 -78 -170 -78 -12 0 -104 -20 -204 -45 -100 -25 -188 -45 -196
-45 -24 0 -43 37 -71 135 -14 50 -73 232 -130 405 -126 383 -163 506 -214 720
-47 198 -71 320 -71 366 0 65 19 73 415 184 194 54 1004 284 1780 505 312 89
452 135 775 255 459 171 555 202 1270 399 239 66 590 163 780 216 190 53 451
126 580 162 129 36 298 83 375 104 77 22 199 56 270 76 136 37 227 73 240 92
4 7 4 23 1 36 -10 39 -54 40 -252 5 -1079 -187 -2519 -556 -3559 -911 -279
-95 -445 -145 -780 -235 -261 -71 -555 -154 -840 -238 -66 -19 -282 -83 -480
-141 -198 -58 -414 -122 -480 -141 -189 -56 -272 -91 -316 -135 -45 -45 -54
-80 -46 -193 10 -158 49 -311 204 -801 88 -279 122 -358 217 -509 90 -142 151
-369 112 -409 -20 -19 -101 -46 -166 -54 -36 -4 -48 -1 -61 13 -78 89 -454
1576 -539 2128 -24 162 -21 190 23 213 67 34 416 125 857 223 151 33 331 75
400 92 264 64 1320 348 1835 493 105 29 258 72 340 95 83 23 425 120 760 215
1263 359 1684 470 2300 609 413 94 675 168 1220 347 684 224 1383 427 2180
634 619 161 716 183 1075 240 124 20 286 47 360 60 164 28 204 30 225 9z
m-16240 -395 c55 -6 154 -19 220 -30 117 -19 170 -30 615 -122 430 -90 737
-134 1118 -162 117 -8 304 -26 415 -39 334 -41 402 -47 611 -55 221 -9 255
-17 313 -73 63 -61 122 -252 108 -347 -11 -70 -32 -118 -102 -224 -114 -173
-295 -344 -481 -454 -232 -137 -796 -355 -1223 -471 -171 -47 -526 -127 -625
-142 -38 -5 -174 -10 -302 -10 -257 0 -336 -10 -454 -59 -127 -54 -191 -107
-488 -412 -778 -797 -1040 -1104 -1507 -1764 -134 -189 -173 -259 -197 -356
-44 -179 -14 -310 199 -864 146 -380 282 -812 379 -1200 53 -212 72 -313 86
-454 23 -239 0 -687 -41 -781 -24 -56 -303 -335 -494 -494 -401 -334 -624
-481 -2060 -1350 -540 -327 -610 -365 -627 -348 -10 10 -7 79 11 305 12 160
25 308 28 328 6 44 -15 69 -57 69 -36 0 -44 -13 -99 -142 -38 -90 -61 -157
-137 -403 -15 -49 -29 -83 -31 -74 -2 9 7 131 22 270 20 203 25 307 25 524 0
280 -2 295 -41 295 -29 0 -55 -44 -98 -166 -111 -313 -239 -822 -321 -1277
-11 -60 -29 -124 -40 -141 -20 -34 -84 -75 -96 -63 -4 4 2 39 14 79 46 158 70
291 147 808 51 346 82 586 131 1025 33 299 36 350 44 780 8 439 23 700 55 958
25 201 38 473 31 647 -12 285 -30 430 -96 765 -74 376 -108 673 -117 1015 -5
194 -3 225 17 320 48 233 164 486 283 616 27 30 183 164 346 296 480 392 1409
1169 1731 1447 160 139 312 277 531 481 79 74 239 218 354 319 251 221 348
317 564 561 212 240 352 383 424 432 202 138 479 180 912 137z m14989 -527
c10 -17 -254 -348 -623 -782 -339 -397 -549 -665 -842 -1070 -129 -180 -346
-501 -401 -594 -24 -41 -31 -46 -63 -46 -80 0 -237 106 -280 190 -23 44 -62
179 -76 266 -12 67 -11 73 13 125 14 30 69 113 124 184 54 72 206 276 337 455
357 484 613 806 747 942 107 107 188 142 505 218 94 22 242 58 330 79 160 39
220 48 229 33z m826 -27 c7 -8 20 -51 30 -96 23 -100 17 -115 -59 -165 -31
-21 -220 -202 -421 -404 -201 -201 -447 -446 -548 -544 -278 -272 -450 -478
-662 -791 -140 -208 -163 -234 -230 -263 -53 -23 -174 -40 -169 -24 7 21 275
356 475 596 359 430 797 918 1230 1369 115 120 233 245 262 278 56 62 71 69
92 44z m-10275 -235 c113 -40 141 -67 88 -89 -25 -9 -717 -202 -1303 -361
-118 -32 -347 -95 -508 -139 -161 -45 -295 -81 -298 -81 -3 0 20 31 50 68 31
38 71 102 90 143 40 89 74 131 132 165 64 38 113 50 369 94 415 71 720 136
990 210 146 40 255 38 390 -10z m10668 -1230 c39 -128 41 -147 23 -175 -24
-37 -58 -50 -240 -96 -119 -30 -170 -39 -178 -31 -8 8 8 35 52 94 74 97 222
273 258 306 24 23 25 23 42 5 10 -10 29 -56 43 -103z m1797 -250 c10 -5 23
-25 29 -42 6 -18 53 -253 106 -523 157 -799 237 -1142 475 -2045 88 -332 510
-2009 583 -2315 154 -641 217 -955 277 -1365 28 -191 57 -310 125 -510 31 -91
94 -289 139 -440 46 -151 107 -350 136 -442 57 -182 58 -208 12 -232 -45 -23
-203 -66 -245 -66 -73 0 -86 27 -198 417 -113 393 -237 928 -394 1693 -19 91
-61 296 -94 456 -33 160 -92 461 -131 670 -107 567 -143 735 -241 1119 -49
193 -95 373 -103 400 -143 515 -305 1021 -451 1415 -42 113 -121 324 -175 470
-146 398 -216 557 -268 613 -47 50 -113 29 -141 -46 -18 -48 -13 -256 11 -415
16 -107 22 -192 22 -312 0 -146 -4 -183 -33 -323 -48 -232 -107 -443 -146
-522 -42 -86 -97 -151 -192 -226 -237 -188 -512 -269 -914 -269 -192 0 -193 0
-342 129 -315 272 -556 606 -671 929 -50 141 -35 166 132 218 322 98 388 120
517 171 151 60 351 155 428 203 48 31 61 62 35 88 -38 38 -507 -22 -998 -127
-548 -117 -794 -172 -941 -210 -85 -23 -167 -41 -181 -41 -18 0 -66 32 -154
102 -71 56 -190 147 -264 202 -74 54 -139 103 -144 107 -16 14 121 48 279 69
511 68 1535 282 2062 431 291 83 529 145 683 179 340 75 714 186 1335 395 6 2
11 4 13 4 2 1 12 -3 22 -9z m-7130 -700 c516 -30 966 -122 1450 -297 475 -171
869 -366 1250 -618 1265 -837 2021 -2121 2187 -3710 24 -236 24 -775 0 -995
-67 -605 -211 -1104 -468 -1620 -476 -955 -1144 -1693 -1989 -2195 -308 -183
-998 -490 -1275 -567 -180 -50 -660 -131 -918 -154 -231 -21 -731 -25 -867 -6
-356 49 -464 63 -610 76 -130 13 -196 25 -310 57 -597 167 -919 301 -1260 527
-92 60 -147 108 -275 237 -88 88 -214 206 -280 262 -234 197 -273 245 -620
767 -155 232 -306 448 -348 496 -94 107 -388 385 -485 458 -84 64 -90 74 -162
270 -153 420 -256 840 -311 1267 -26 204 -42 741 -29 977 36 630 197 1205 525
1873 215 437 426 767 713 1115 116 141 451 476 587 589 375 311 791 568 1240
766 766 338 1466 470 2255 425z m-5196 -2357 c-4 -21 -21 -72 -39 -113 -18
-41 -44 -109 -59 -151 -15 -42 -37 -86 -49 -97 -16 -16 -73 -33 -204 -62 -386
-86 -650 -172 -1235 -402 -159 -62 -270 -112 -292 -130 -44 -36 -48 -74 -10
-109 22 -21 34 -24 92 -22 37 1 176 20 310 42 133 23 253 41 266 41 12 0 31
-9 41 -20 17 -19 17 -23 1 -87 -45 -185 -220 -426 -541 -748 -147 -146 -238
-226 -470 -409 -185 -147 -289 -206 -327 -189 -14 6 -58 57 -98 113 -158 222
-591 735 -711 843 -142 129 -408 281 -624 358 -49 17 -102 36 -117 41 -58 21
-46 26 327 133 1024 294 3583 981 3738 1004 4 0 5 -16 1 -36z m-4692 -1458
c521 -71 889 -215 1210 -474 152 -123 286 -295 443 -568 211 -369 580 -838
955 -1213 181 -182 229 -222 733 -618 661 -519 742 -577 1047 -742 445 -241
537 -299 649 -411 87 -87 128 -144 255 -352 221 -361 420 -659 546 -812 86
-104 221 -231 350 -326 337 -249 493 -420 617 -674 60 -124 87 -214 79 -269
-33 -215 -429 -391 -876 -389 -285 1 -537 71 -900 251 -120 59 -166 88 -205
127 -27 28 -151 197 -274 375 -434 629 -589 820 -1066 1310 -88 91 -221 239
-295 330 -157 192 -402 447 -545 567 -439 371 -1002 567 -1502 524 -213 -18
-348 -52 -497 -122 -68 -32 -107 -36 -148 -15 -15 8 -87 64 -160 124 -155 127
-347 271 -426 318 -62 38 -125 46 -136 18 -19 -51 22 -195 96 -332 47 -88 50
-97 46 -152 -6 -82 -47 -140 -209 -291 -73 -68 -178 -169 -233 -225 -183 -182
-280 -232 -746 -384 -819 -267 -1491 -454 -2120 -590 -173 -38 -474 -112 -630
-156 -143 -39 -299 -75 -450 -103 -423 -78 -719 -204 -1149 -489 -287 -190
-427 -343 -557 -607 -106 -216 -180 -469 -226 -778 -17 -112 -22 -191 -22
-377 -1 -265 13 -367 80 -569 69 -209 195 -431 245 -431 45 0 47 19 52 480 5
462 12 553 62 810 53 272 164 602 276 820 87 171 192 277 437 441 246 165 322
192 752 263 1330 223 2201 448 3064 793 104 41 296 113 427 158 336 117 467
176 1039 460 857 426 986 471 1360 469 314 -1 455 -38 697 -182 335 -199 716
-511 997 -818 244 -266 406 -481 778 -1031 517 -766 805 -1162 1243 -1708 139
-175 248 -298 360 -410 193 -192 268 -297 390 -550 156 -321 209 -485 320
-985 179 -807 242 -1008 409 -1309 181 -327 234 -465 243 -636 9 -167 -28
-268 -147 -397 -76 -83 -175 -151 -270 -185 -146 -52 -360 -42 -520 26 -278
116 -510 412 -545 691 -12 95 142 651 239 861 19 43 40 80 46 84 19 12 40 -15
56 -74 27 -91 74 -205 94 -225 28 -29 67 -9 76 39 13 72 -3 514 -25 650 -53
341 -156 726 -255 949 -83 187 -177 225 -285 113 -18 -20 -39 -33 -47 -30 -7
2 -41 39 -76 81 -159 193 -365 419 -628 687 -509 519 -811 890 -998 1227 -112
203 -242 351 -423 481 -166 119 -525 283 -673 307 -213 35 -675 -18 -1111
-126 -309 -77 -855 -255 -1724 -561 -375 -132 -560 -193 -731 -242 -290 -83
-679 -167 -1000 -216 -91 -14 -192 -29 -225 -35 -282 -47 -643 -103 -800 -124
-254 -35 -345 -52 -440 -83 -249 -80 -473 -252 -664 -508 -142 -191 -230 -400
-267 -630 -21 -138 -31 -697 -15 -860 23 -227 102 -546 152 -608 22 -29 50
-35 68 -14 42 51 91 343 141 836 12 112 30 256 40 320 40 231 115 492 182 625
103 206 271 349 480 409 107 32 442 80 933 137 896 103 1472 221 2050 420 131
46 372 141 480 190 227 103 594 244 945 362 647 218 854 261 1245 262 170 0
240 -4 310 -17 247 -48 492 -149 575 -237 30 -32 89 -127 175 -285 236 -434
393 -654 810 -1135 272 -313 908 -1052 951 -1105 56 -68 159 -225 199 -305 49
-97 66 -164 66 -262 0 -128 -10 -162 -112 -373 -117 -242 -146 -345 -184 -640
-14 -110 -32 -243 -40 -295 -19 -127 -51 -455 -70 -725 -8 -121 -22 -303 -31
-405 -14 -161 -15 -219 -4 -451 l13 -266 -25 -54 c-48 -102 -145 -178 -263
-204 -97 -22 -157 -10 -286 55 -156 78 -271 162 -404 295 -286 286 -460 635
-535 1076 -43 256 -45 726 -5 1031 19 142 19 179 0 253 -25 95 -71 153 -190
235 -57 39 -148 108 -202 153 -115 95 -1087 1063 -1290 1285 -77 84 -159 167
-183 185 -114 83 -233 2 -217 -148 6 -62 79 -244 150 -375 71 -130 70 -167 0
-340 -197 -480 -496 -1042 -901 -1695 -324 -521 -592 -994 -592 -1042 0 -13
11 -30 25 -39 25 -16 27 -16 78 19 177 122 450 411 675 712 318 425 632 967
817 1407 48 114 61 138 75 138 12 0 48 -162 65 -287 48 -365 69 -801 62 -1248
-8 -454 -27 -731 -92 -1325 -13 -124 -34 -319 -45 -435 l-21 -210 21 -17 c47
-38 60 -24 152 163 125 252 199 500 263 884 151 899 171 1743 56 2335 -12 58
-21 113 -21 123 0 37 32 29 118 -30 138 -95 438 -265 686 -389 32 -16 74 -43
92 -60 44 -41 44 -71 -1 -273 -56 -253 -76 -412 -82 -652 -9 -326 16 -513 117
-894 82 -308 123 -379 451 -790 88 -110 147 -174 188 -203 100 -73 158 -174
266 -462 134 -355 230 -783 275 -1224 40 -391 55 -1183 25 -1300 -38 -145
-372 -705 -558 -935 -145 -180 -369 -381 -617 -555 -473 -332 -964 -564 -1450
-686 -321 -81 -533 -105 -830 -97 -258 8 -360 26 -880 153 -757 185 -1255 381
-1860 729 -199 115 -209 123 -436 336 -654 615 -874 991 -1199 2049 -104 340
-109 355 -274 866 -61 188 -111 349 -111 359 0 9 6 15 13 13 13 -5 28 -23 202
-244 294 -373 536 -617 766 -773 79 -53 108 -61 129 -36 16 20 8 32 -145 215
-328 395 -588 777 -872 1283 -174 312 -271 478 -578 997 -669 1129 -1044 1831
-1395 2610 -224 496 -422 986 -590 1460 -216 610 -468 1239 -702 1753 -185
409 -233 559 -258 815 -14 134 -3 235 36 364 98 320 153 449 261 612 79 119
284 331 409 423 158 116 520 339 1334 821 691 409 1355 819 1710 1056 228 152
370 256 531 388 65 53 213 168 330 255 144 107 322 256 544 453 182 161 427
377 545 480 247 215 297 261 665 610 369 352 434 408 603 532 167 123 224 154
302 167 30 5 56 9 57 10 1 0 53 -6 115 -14z m19467 -3659 c22 -17 37 -61 74
-216 65 -269 70 -346 24 -387 -35 -33 -49 -38 -317 -113 -611 -173 -935 -250
-1315 -315 -145 -25 -232 -43 -565 -120 -194 -44 -367 -77 -585 -110 -198 -30
-333 -62 -612 -144 -112 -33 -305 -85 -430 -116 -310 -76 -717 -188 -1018
-280 -348 -106 -354 -108 -693 -170 -432 -79 -762 -148 -1031 -216 -224 -56
-291 -68 -291 -51 0 16 18 31 85 77 215 146 509 386 760 620 88 83 167 156
176 162 9 7 74 24 145 38 169 34 303 70 581 156 296 92 611 178 1008 274 354
85 927 230 1190 300 352 93 680 170 1685 390 285 63 451 104 575 144 66 22
165 47 220 55 55 9 138 23 185 30 87 14 124 12 149 -8z m-11724 -2749 c241
-87 469 -161 595 -192 80 -20 208 -57 285 -82 121 -38 168 -48 345 -69 113
-13 212 -24 220 -24 102 -1 -449 -158 -1220 -349 -556 -137 -750 -180 -1350
-301 -195 -39 -444 -93 -553 -120 -205 -51 -234 -53 -290 -21 -42 24 -287 308
-287 332 0 12 33 4 129 -27 221 -74 465 -100 681 -74 254 32 535 143 694 275
62 52 139 153 176 230 34 71 70 211 70 271 0 66 11 104 34 119 11 8 68 25 126
39 134 33 242 31 345 -7z m-2429 -5694 c17 -25 19 -48 17 -228 -4 -541 -148
-1366 -363 -2090 -108 -362 -340 -999 -378 -1037 -13 -13 -15 -2 -47 282 -57
505 -130 835 -264 1199 -33 90 -39 136 -18 144 7 2 35 1 62 -4 28 -4 95 -8
150 -8 304 -2 524 126 650 379 87 174 104 287 115 765 10 418 26 625 49 625 5
0 17 -12 27 -27z"/>
<path d="M13068 31450 c-26 -14 -41 -32 -53 -63 -21 -56 -10 -88 53 -145 26
-24 43 -46 37 -48 -47 -20 -93 -55 -113 -84 -19 -29 -23 -44 -20 -87 11 -134
124 -187 533 -249 88 -13 177 -24 197 -24 20 0 40 -5 44 -12 5 -8 -30 -9 -147
-3 -269 16 -287 14 -315 -18 -33 -39 -33 -99 1 -133 77 -77 239 -98 765 -98
567 0 827 29 1023 111 32 14 37 21 35 42 -2 19 -11 27 -33 33 -16 3 -176 15
-355 24 l-325 18 190 23 c205 25 241 35 250 65 9 25 -19 67 -48 72 -12 2 -143
27 -292 56 -262 52 -356 78 -230 66 134 -13 531 -18 572 -7 46 13 65 43 41 67
-8 8 -86 32 -174 53 -87 22 -283 71 -434 109 -151 39 -338 85 -415 102 -77 18
-250 59 -385 91 -270 65 -340 72 -402 39z"/>
<path d="M13740 30440 c-124 -7 -170 -21 -209 -63 -53 -58 -17 -153 74 -196
149 -70 618 -65 987 9 115 24 338 88 356 102 17 14 15 63 -3 78 -26 21 -941
88 -1070 78 -11 -1 -72 -4 -135 -8z"/>
<path d="M9913 28781 c-320 -170 -682 -440 -1130 -845 -177 -159 -233 -228
-233 -287 0 -30 7 -43 32 -64 28 -24 38 -27 90 -23 72 5 96 21 363 245 577
482 886 761 1010 913 67 82 71 113 15 118 -27 2 -62 -12 -147 -57z"/>
<path d="M10091 28563 c-64 -33 -394 -280 -575 -431 -268 -223 -616 -562 -649
-634 -33 -70 -15 -127 48 -154 66 -27 119 4 328 193 222 201 883 908 926 990
15 30 14 41 -8 52 -14 8 -31 4 -70 -16z"/>
<path d="M10102 28291 c-117 -107 -455 -450 -573 -581 -190 -212 -325 -385
-354 -454 -14 -32 -14 -40 0 -71 17 -41 64 -66 108 -58 29 6 89 55 215 177 39
39 72 67 72 64 0 -4 -15 -33 -34 -65 -84 -144 -86 -236 -6 -293 49 -35 92 -36
155 -5 45 21 70 45 129 118 190 237 392 587 456 790 20 63 21 69 6 92 -28 42
-56 32 -147 -51 -125 -113 -259 -226 -259 -219 0 14 27 55 105 160 93 125 182
257 244 362 32 55 42 79 37 98 -12 48 -48 33 -154 -64z"/>
<path d="M23865 27929 c-810 -62 -1577 -325 -2260 -774 -485 -319 -761 -594
-1086 -1080 -165 -248 -348 -547 -413 -675 -233 -457 -373 -971 -427 -1560
-19 -208 -16 -713 4 -895 109 -944 473 -1792 1084 -2520 132 -157 408 -426
558 -543 600 -467 1383 -784 2195 -886 324 -41 803 -46 1100 -12 754 88 1459
363 2080 815 322 234 673 577 906 886 428 568 786 1391 899 2068 38 234 46
314 52 564 26 1031 -367 2180 -1022 2988 -445 549 -1031 985 -1740 1295 -608
266 -1274 379 -1930 329z m260 -420 c15 -15 13 -24 -25 -115 -69 -160 -92
-265 -97 -441 -7 -208 15 -353 86 -558 96 -276 236 -424 550 -581 186 -92 355
-144 541 -164 406 -44 612 -102 915 -254 280 -141 531 -324 779 -566 316 -309
504 -607 629 -997 56 -173 219 -954 248 -1188 17 -139 15 -451 -5 -615 -15
-121 -62 -396 -102 -586 -8 -39 -30 -102 -48 -140 -94 -196 -605 -783 -762
-877 -150 -90 -313 -128 -569 -133 -357 -7 -498 26 -710 165 -86 56 -200 164
-261 245 -59 78 -138 240 -163 336 -54 200 -75 492 -47 660 21 123 59 236 107
315 21 35 85 105 167 183 205 193 312 336 417 554 118 246 175 502 175 788 0
506 -201 982 -559 1322 -291 277 -715 428 -1205 428 -273 0 -493 -45 -723
-148 -263 -117 -452 -262 -643 -493 -99 -120 -162 -173 -260 -218 -319 -149
-724 -78 -987 173 -98 92 -151 168 -217 308 -109 230 -141 376 -140 643 0 156
4 208 22 293 42 196 140 478 224 649 73 150 310 341 672 543 424 237 966 410
1471 469 50 6 101 13 115 15 14 2 107 3 207 2 153 -1 185 -4 198 -17z m290
-2504 c171 -35 330 -106 525 -233 393 -256 592 -541 697 -997 14 -64 18 -120
17 -285 0 -188 -2 -213 -26 -300 -74 -273 -207 -498 -423 -715 -128 -128 -250
-218 -390 -285 -120 -59 -187 -82 -325 -111 -152 -33 -457 -33 -610 0 -187 39
-337 96 -475 181 -482 295 -745 828 -696 1412 31 369 157 658 392 903 238 247
552 398 925 445 96 12 294 4 389 -15z"/>
<path d="M24088 24780 c-174 -31 -513 -184 -669 -302 -239 -180 -403 -469
-444 -784 -19 -143 -19 -184 0 -307 62 -409 332 -771 706 -946 365 -171 798
-141 1156 80 107 67 290 243 360 349 140 210 206 424 207 675 1 322 -106 589
-342 853 -95 106 -131 108 -132 7 -2 -211 -87 -362 -248 -438 -57 -27 -79 -32
-142 -32 -63 0 -85 5 -143 32 -119 56 -201 164 -227 300 -29 148 24 253 210
416 71 62 71 66 0 88 -46 14 -232 20 -292 9z"/>
<path d="M14928 24451 c-32 -28 -33 -32 -32 -103 1 -92 25 -157 106 -280 150
-228 322 -434 572 -684 252 -252 391 -358 435 -334 12 6 21 21 21 34 0 20
-180 319 -232 385 -10 13 -16 27 -13 30 4 3 9 1 13 -5 4 -5 107 -107 229 -227
134 -131 230 -217 241 -217 11 0 25 7 33 16 25 31 -88 232 -401 709 -108 165
-227 348 -264 407 -98 157 -164 202 -242 165 -51 -25 -68 -58 -61 -122 3 -35
2 -57 -5 -61 -13 -8 -31 13 -108 122 -68 97 -125 161 -161 180 -46 23 -94 18
-131 -15z"/>
<path d="M14719 24165 c-65 -36 -76 -108 -29 -201 16 -33 103 -146 196 -257
91 -109 163 -201 160 -204 -2 -3 -57 45 -121 106 -144 138 -212 186 -267 186
-85 0 -114 -94 -63 -204 17 -35 56 -86 112 -142 48 -49 84 -92 80 -95 -3 -4
-20 -1 -38 5 -47 16 -94 14 -112 -6 -57 -64 -15 -147 144 -284 249 -215 556
-410 845 -536 138 -60 198 -71 217 -41 15 23 -18 58 -208 211 -87 71 -143 123
-134 125 8 1 54 -15 102 -38 97 -44 122 -49 136 -22 13 25 1 43 -91 140 -44
46 -78 86 -75 88 2 3 50 -23 106 -56 102 -62 132 -69 145 -33 11 28 15 23
-672 870 -241 297 -301 366 -336 382 -49 24 -62 25 -97 6z"/>
<path d="M19115 20776 c-17 -7 -43 -28 -58 -45 -59 -71 -44 -162 50 -294 19
-27 39 -61 44 -75 l10 -27 -28 25 c-15 14 -59 55 -98 91 -72 68 -138 109 -175
109 -29 0 -70 -44 -70 -75 0 -63 110 -223 290 -423 290 -320 468 -487 658
-616 89 -60 117 -68 127 -36 9 28 -25 83 -172 282 -169 227 -161 237 43 54
124 -111 158 -125 184 -75 20 37 -69 265 -182 462 -180 316 -389 585 -493 633
-57 27 -87 29 -130 10z"/>
<path d="M16643 20505 c-34 -24 -44 -77 -27 -135 15 -52 25 -63 348 -425 600
-670 863 -945 1056 -1101 119 -96 160 -114 174 -77 11 27 -53 145 -177 331
-306 459 -778 996 -1169 1333 -104 90 -156 108 -205 74z"/>
<path d="M8764 20460 c-130 -26 -363 -129 -547 -243 -258 -160 -526 -367 -685
-531 -137 -141 -167 -191 -167 -279 1 -51 4 -61 33 -90 30 -30 37 -32 95 -30
34 1 73 3 87 5 23 3 25 -1 30 -42 7 -57 15 -70 46 -70 60 0 178 77 413 270 95
77 317 260 494 405 177 146 333 273 346 283 19 15 23 24 17 45 -11 44 -53 35
-245 -53 -96 -44 -177 -77 -180 -74 -8 7 53 63 237 217 114 96 152 133 152
150 0 46 -33 55 -126 37z"/>
<path d="M18631 20211 c-26 -24 -31 -37 -31 -75 0 -97 73 -224 227 -393 41
-46 70 -83 64 -83 -6 0 -41 28 -78 61 -142 129 -208 155 -258 104 -30 -29 -33
-80 -9 -128 28 -53 102 -133 244 -265 211 -195 366 -310 560 -414 111 -60 127
-64 151 -42 29 26 24 62 -13 98 -115 110 -378 386 -353 370 17 -10 99 -65 183
-121 162 -109 220 -135 247 -113 35 29 25 49 -108 235 -208 289 -389 507 -549
662 -143 137 -213 164 -277 104z"/>
<path d="M16654 19988 c-51 -24 -62 -105 -24 -182 60 -126 430 -537 745 -829
174 -161 247 -221 352 -286 83 -51 119 -61 141 -39 21 21 13 54 -38 155 -112
222 -440 619 -750 909 -284 266 -352 309 -426 272z"/>
<path d="M8830 19864 c-188 -63 -460 -223 -650 -382 -136 -114 -271 -257 -303
-321 -36 -74 -37 -132 -1 -160 37 -29 53 -27 120 18 120 81 790 632 937 770
55 52 49 102 -11 101 -9 0 -51 -12 -92 -26z"/>
<path d="M16662 19347 c-54 -58 -13 -116 303 -433 226 -227 332 -317 442 -375
81 -43 114 -35 100 24 -17 64 -342 420 -594 649 -188 172 -207 182 -251 135z"/>
<path d="M10401 18969 c-176 -20 -589 -120 -804 -195 -138 -49 -346 -149 -441
-213 -102 -69 -210 -172 -235 -225 -13 -26 -21 -62 -21 -95 0 -47 4 -57 33
-86 41 -41 93 -53 157 -36 25 7 156 64 292 126 420 195 479 218 1088 439 471
170 459 165 471 188 17 32 2 68 -36 83 -43 18 -385 28 -504 14z"/>
<path d="M10675 18579 c-153 -16 -507 -94 -775 -170 -255 -72 -544 -196 -612
-263 -60 -59 -63 -124 -6 -155 23 -13 35 -13 90 -2 96 20 332 91 529 159 289
101 556 183 919 282 270 74 275 76 275 115 0 23 -6 31 -25 36 -34 10 -297 8
-395 -2z"/>
<path d="M10500 18235 c-137 -19 -309 -59 -440 -102 -140 -47 -357 -151 -407
-197 -96 -86 -95 -194 3 -226 27 -9 46 -7 104 10 135 40 892 352 1013 418 54
29 70 63 43 90 -22 22 -178 26 -316 7z"/>
<path d="M17125 18009 c-62 -19 -85 -54 -85 -128 l0 -51 -55 6 c-66 8 -110 -8
-130 -47 -20 -38 -19 -69 5 -129 11 -28 20 -52 20 -54 0 -2 -27 -2 -60 1 -49
5 -64 2 -80 -12 -24 -21 -26 -71 -6 -118 33 -81 341 -538 507 -753 118 -153
197 -217 240 -193 19 10 21 17 16 59 -10 81 -65 201 -195 425 -16 27 68 -54
126 -123 37 -44 102 -120 145 -170 44 -52 85 -92 95 -92 23 0 42 19 42 41 0
33 -53 177 -122 332 -38 87 -67 161 -64 164 3 3 16 -7 28 -23 130 -166 325
-364 359 -364 86 0 23 224 -154 545 -116 212 -326 514 -410 592 -83 77 -162
109 -222 92z"/>
<path d="M10625 17823 c-164 -20 -397 -86 -498 -141 -63 -34 -107 -84 -107
-122 0 -42 42 -87 90 -95 74 -13 293 65 551 196 154 78 178 97 161 133 -15 33
-85 43 -197 29z"/>
<path d="M16695 17235 c-45 -44 -28 -106 59 -227 155 -218 395 -472 438 -466
37 5 33 39 -16 136 -94 187 -255 431 -351 530 -59 60 -91 67 -130 27z"/>
<path d="M12030 16784 c-63 -7 -182 -20 -265 -29 -287 -31 -641 -115 -744
-177 -113 -67 -156 -151 -116 -228 21 -41 68 -62 148 -68 95 -7 218 11 672 94
315 58 392 72 591 103 228 36 560 108 592 127 26 17 29 55 5 77 -42 37 -223
86 -393 107 -112 13 -348 11 -490 -6z"/>
<path d="M12205 16409 c-155 -8 -511 -64 -663 -104 -242 -64 -352 -171 -262
-255 40 -37 88 -44 254 -37 137 6 329 36 736 117 564 112 642 135 626 188 -22
70 -331 110 -691 91z"/>
<path d="M12399 16085 c-204 -33 -440 -95 -525 -138 -64 -33 -131 -104 -139
-151 -15 -75 55 -134 168 -143 88 -7 355 50 627 133 146 45 459 161 499 185
54 33 37 81 -39 109 -52 20 -478 23 -591 5z"/>
<path d="M20144 16031 c-39 -24 -58 -70 -50 -120 3 -21 31 -121 62 -221 50
-164 146 -538 234 -910 96 -407 133 -523 167 -528 33 -5 50 32 62 140 37 323
-110 1165 -265 1516 -56 126 -132 171 -210 123z"/>
<path d="M12635 15764 c-249 -35 -373 -74 -439 -140 -52 -53 -61 -115 -21
-158 50 -54 124 -59 299 -21 122 26 423 129 518 176 95 48 99 93 11 123 -47
16 -299 30 -368 20z"/>
<path d="M19350 14622 c-21 -10 -43 -33 -55 -57 -44 -85 -38 -82 -84 -36 -69
69 -135 47 -181 -61 -26 -61 -39 -72 -60 -54 -30 27 -80 46 -118 46 -70 0
-119 -71 -157 -227 -9 -40 -21 -73 -25 -73 -4 0 -13 14 -19 32 -19 54 -49 78
-97 78 -91 0 -128 -103 -141 -396 -10 -236 24 -567 70 -676 13 -30 22 -38 41
-38 34 0 42 19 57 138 17 142 28 136 49 -28 17 -140 48 -210 90 -210 25 0 39
27 62 119 30 123 38 111 38 -61 0 -135 2 -159 18 -178 13 -16 24 -21 39 -16
24 8 30 22 73 164 17 56 35 102 40 102 6 0 10 -82 10 -207 1 -245 16 -340 60
-363 33 -18 48 12 95 190 125 483 331 1429 361 1656 8 66 -20 135 -65 158 -39
20 -58 20 -101 -2z"/>
<path d="M10513 11216 c-58 -50 -31 -131 121 -360 177 -268 440 -603 707 -901
227 -254 425 -426 575 -500 113 -56 190 -43 153 26 -6 12 -102 131 -213 263
-111 133 -321 390 -466 571 -466 582 -722 885 -771 910 -40 21 -74 18 -106 -9z"/>
<path d="M11470 10577 c-13 -7 -31 -24 -39 -39 -19 -33 -5 -83 41 -153 46 -69
373 -396 498 -497 216 -175 395 -283 426 -257 29 24 14 58 -67 161 -87 109
-724 750 -768 772 -45 23 -65 26 -91 13z"/>
</g>
</svg>
